Land_normalized_Precision Landing15_filtered_grf
version=1
nRows=12
nColumns=37
inDegrees=yes
endheader
time		1_ground_force_vx		1_ground_force_vy		1_ground_force_vz		1_ground_force_px		1_ground_force_py		1_ground_force_pz		1_ground_torque_x		1_ground_torque_y		1_ground_torque_z		2_ground_force_vx		2_ground_force_vy		2_ground_force_vz		2_ground_force_px		2_ground_force_py		2_ground_force_pz		2_ground_torque_x		2_ground_torque_y		2_ground_torque_z		3_ground_force_vx		3_ground_force_vy		3_ground_force_vz		3_ground_force_px		3_ground_force_py		3_ground_force_pz		3_ground_torque_x		3_ground_torque_y		3_ground_torque_z		4_ground_force_vx		4_ground_force_vy		4_ground_force_vz		4_ground_force_px		4_ground_force_py		4_ground_force_pz		4_ground_torque_x		4_ground_torque_y		4_ground_torque_z		
0.962000		-1.482864		-28.356931		-25.651544		0.115732		0.000000		0.267681		-0.011030		-0.210921		-0.190798		0.822509		-21.563700		-6.945868		-0.159471		0.000000		0.296182		0.037891		-0.993396		-0.319982		6.137471		-0.262129		-1.455261		0.352961		1.255116		1.891721		0.000374		-0.000016		-0.000089		-18.902371		0.602572		-2.536504		-0.289339		1.264870		1.901631		0.009949		-0.000317		0.001335		
0.965359		3.466980		-30.619734		-43.703380		0.139391		0.000000		0.199360		-0.016595		0.143583		0.206037		0.549049		-32.303492		-26.305629		-0.210547		0.000000		0.221321		0.039726		-2.338182		-1.904456		6.030167		-0.250474		-1.491821		0.352985		1.255125		1.891733		0.000296		-0.000012		-0.000073		-18.806748		0.555297		-2.451747		-0.289326		1.264872		1.901637		0.013900		-0.000410		0.001812		
0.968717		9.707156		-10.850466		-44.907449		0.258083		0.000000		-0.158914		-0.150931		0.167440		0.696994		-0.020165		-27.281402		-41.724730		-0.259036		0.000000		0.110113		-0.001167		-1.716059		-2.618520		5.864718		-0.328939		-1.413993		0.353011		1.255144		1.891736		-0.000799		0.000045		0.000193		-18.660130		0.538722		-2.440043		-0.289323		1.264873		1.901643		0.015352		-0.000443		0.002007		
0.972076		14.030880		40.377947		-13.534821		0.108451		0.000000		0.426409		0.391497		1.130118		-0.374735		-0.340353		6.457793		-38.853132		-0.279531		0.000000		1.439224		0.013460		-0.287125		1.539870		5.649194		-0.489043		-1.227396		0.353040		1.255172		1.891731		-0.002548		0.000221		0.000553		-18.483756		0.560598		-2.512130		-0.289324		1.264872		1.901651		0.014171		-0.000430		0.001926		
0.975434		11.853189		125.888287		60.017343		0.108299		0.000000		0.312304		0.174173		1.842595		0.876526		0.800938		78.562752		-2.503714		-0.137357		0.000000		0.365249		-0.000171		-0.062120		0.021515		5.399772		-0.689622		-0.971356		0.353076		1.255205		1.891717		-0.004245		0.000542		0.000763		-18.284951		0.605599		-2.649521		-0.289326		1.264867		1.901654		0.010866		-0.000360		0.001574		
0.978793		-1.125854		239.903308		170.681922		0.118344		0.000000		0.277954		-0.002770		0.764071		0.542106		5.338877		191.066359		75.757884		-0.167153		0.000000		0.301947		0.307443		10.987993		4.362540		5.142055		-0.870518		-0.704227		0.353120		1.255238		1.891696		-0.004992		0.000845		0.000683		-18.070893		0.645735		-2.805181		-0.289322		1.264861		1.901649		0.006480		-0.000231		0.001006		
0.982152		-26.398227		372.373466		294.790245		0.126074		0.000000		0.264020		0.086901		-1.218791		-0.965042		15.681258		338.301167		189.771780		-0.187078		0.000000		0.282043		1.094093		23.599744		13.239290		4.911246		-0.977162		-0.487337		0.353169		1.255267		1.891671		-0.000639		0.001255		0.035994		-17.869066		0.657281		-2.924062		-0.289310		1.264856		1.901633		0.002343		-0.000086		0.000384		
0.985510		-60.626401		519.352047		395.593680		0.130346		0.000000		0.264147		0.432163		-3.701947		-2.819748		34.131485		513.515264		315.904508		-0.195104		0.000000		0.281154		2.470498		37.169174		22.865746		4.746656		-0.978242		-0.369469		0.353219		1.255286		1.891643		0.001365		0.002990		0.041110		-17.730237		0.632306		-2.968181		-0.289288		1.264851		1.901603		-0.000323		0.000011		-0.000054		
0.988869		-95.214549		692.074467		437.119209		0.129904		0.000000		0.277645		0.724726		-5.267990		-3.328106		61.749698		718.197070		417.151771		-0.193638		0.000000		0.295212		4.316266		50.204660		29.161555		4.678620		-0.872913		-0.373518		0.353267		1.255294		1.891614		0.004199		0.004460		0.044376		-17.708301		0.579268		-2.932662		-0.289254		1.264847		1.901563		-0.000813		0.000027		-0.000135		
0.992227		-118.765394		912.571693		402.530316		0.125623		0.000000		0.300792		0.356665		-2.734879		-1.213666		96.440523		963.194236		456.062253		-0.184780		0.000000		0.320010		5.895599		58.888621		27.892117		4.711811		-0.693043		-0.487356		0.353310		1.255293		1.891585		0.007165		0.005940		0.045012		-17.827791		0.515511		-2.845392		-0.289210		1.264845		1.901516		0.000725		-0.000021		0.000116		
0.995586		-121.711022		1195.118209		302.242525		0.121606		0.000000		0.326945		-0.704494		6.930086		1.746498		132.472989		1254.662300		409.796941		-0.173822		0.000000		0.348444		5.967395		56.518212		18.471879		4.823228		-0.491038		-0.672309		0.353348		1.255281		1.891554		0.009725		0.007436		0.043256		-18.068509		0.458365		-2.745986		-0.289156		1.264842		1.901465		0.003453		-0.000088		0.000525		
0.998944		-100.852940		1525.452200		170.458278		0.120467		0.000000		0.350327		-1.459604		22.090574		2.465610		162.720371		1572.784648		281.873038		-0.167043		0.000000		0.373795		4.068774		39.324140		7.057005		4.971358		-0.323023		-0.878124		0.353386		1.255262		1.891520		0.011480		0.008684		0.040196		-18.370648		0.422379		-2.667912		-0.289095		1.264839		1.901413		0.006301		-0.000145		0.000915		
